<?xml version="1.0" encoding="UTF-8"?>
<svg id="a" data-name="Layer 1" xmlns="http://www.w3.org/2000/svg" width="1920" height="1080" viewBox="0 0 1920 1080">
  <rect width="1920" height="1080" fill="#fff" stroke-width="0"/>
  <g>
    <path d="M1062.312,522.248c-13.076-9.055-23.182-20.769-30.313-35.155-7.136-14.379-10.159-29.858-9.074-46.437,1.068-16.329,6.077-31.218,15.035-44.673,8.952-13.449,20.57-23.87,34.845-31.265,14.272-7.388,29.324-10.566,45.161-9.53,14.346.939,26.625,4.106,36.837,9.492,10.205,5.39,18.264,11.386,24.168,17.98,5.904,6.6,11.221,13.657,15.947,21.17l1.016,1.557-29.346,15.598c-.45-.775-.894-1.549-1.34-2.325-5.62-9.062-12.479-16.283-20.571-21.658-8.1-5.374-17.714-8.426-28.847-9.155-9.899-.648-19.415,1.402-28.541,6.146-9.134,4.748-16.59,11.464-22.376,20.152-5.789,8.695-9.02,18.233-9.7,28.623-.696,10.641,1.257,20.646,5.864,30.015,4.604,9.375,11.062,16.937,19.385,22.7,8.319,5.762,17.548,8.974,27.695,9.638,11.134.728,21.128-1.041,29.978-5.306,8.853-4.267,17.776-11.931,23.849-19.871.767-1.002,1.401-1.902,1.401-1.902l26.576,18.642-.419.717c-5.456,7.348-11.291,13.925-17.505,19.727-6.221,5.806-14.876,10.895-25.971,15.259-11.093,4.365-24.434,6.042-40.023,5.022-16.085-1.052-30.663-6.106-43.733-15.16Z" stroke-width="0"/>
    <path d="M1259.175,367.109l30.109,12.826-52.764,123.863,3.023-2.35c11.313-7.574,22.625-11.517,33.939-11.819,11.308-.3,22.101,1.734,32.368,6.107,11.172,4.759,20.304,11.479,27.39,20.157,7.081,8.677,11.371,18.86,12.862,30.543,1.489,11.688-.631,24.258-6.364,37.715l-43.436,101.965-30.112-12.827,38.771-91.015c6.607-15.511,7.976-28.539,4.116-39.077-3.867-10.541-11.844-18.385-23.932-23.535-9.126-3.888-18.125-5.227-26.989-4.019-8.873,1.211-16.899,4.866-24.077,10.967-7.187,6.104-13.077,14.238-17.674,24.407l-36.44,85.541-30.109-12.826,109.319-256.623Z" stroke-width="0"/>
    <path d="M696.305,751.028l-90.688,20.521-6.567-29.02,214.02-48.43,6.567,29.02-90.686,20.521,54.997,243.039-32.647,7.387-54.997-243.039Z" stroke-width="0"/>
    <path d="M876.893,396.238c-13.888-8.182-24.919-19.211-33.101-33.101-8.182-13.883-12.273-29.131-12.273-45.746,0-16.364,4.091-31.612,12.273-45.745,8.182-14.134,19.212-25.291,33.101-33.473,13.882-8.182,29.132-12.273,45.745-12.273,16.366,0,31.55,4.154,45.56,12.458,14.006,8.311,25.103,19.468,33.288,33.473,8.182,14.011,12.273,29.195,12.273,45.559,0,16.615-4.091,31.863-12.273,45.746-8.184,13.89-19.282,24.919-33.288,33.101-14.011,8.182-29.194,12.273-45.56,12.273-16.613,0-31.863-4.091-45.745-12.273ZM951.835,369.273c9.048-5.329,16.177-12.581,21.384-21.757,5.209-9.169,7.811-19.211,7.811-30.125s-2.667-20.949-7.995-30.124c-5.336-9.171-12.46-16.487-21.386-21.944-8.926-5.451-18.595-8.182-29.01-8.182-10.664,0-20.455,2.731-29.381,8.182-8.926,5.457-16.057,12.773-21.386,21.944-5.333,9.175-7.995,19.217-7.995,30.124s2.662,20.956,7.995,30.125c5.329,9.176,12.46,16.428,21.386,21.757,8.926,5.336,18.717,7.996,29.381,7.996,10.415,0,20.141-2.661,29.197-7.996Z" stroke-width="0"/>
    <path d="M1065.405,328.528c-13.888-8.182-24.919-19.211-33.101-33.101-8.182-13.883-12.273-29.131-12.273-45.746,0-16.364,4.091-31.612,12.273-45.745,8.182-14.134,19.212-25.291,33.101-33.473,13.882-8.182,29.132-12.273,45.745-12.273,16.366,0,31.55,4.154,45.56,12.458,14.006,8.311,25.103,19.468,33.288,33.473,8.182,14.011,12.273,29.195,12.273,45.559,0,16.615-4.091,31.863-12.273,45.746-8.184,13.89-19.282,24.919-33.288,33.101-14.011,8.182-29.194,12.273-45.56,12.273-16.613,0-31.863-4.091-45.745-12.273ZM1140.346,301.564c9.048-5.329,16.177-12.581,21.384-21.757,5.209-9.169,7.811-19.211,7.811-30.125s-2.667-20.949-7.995-30.124c-5.336-9.171-12.46-16.487-21.386-21.944-8.926-5.451-18.595-8.182-29.01-8.182-10.664,0-20.455,2.731-29.381,8.182-8.926,5.457-16.057,12.773-21.386,21.944-5.333,9.175-7.995,19.217-7.995,30.124s2.662,20.956,7.995,30.125c5.329,9.176,12.46,16.428,21.386,21.757,8.926,5.336,18.717,7.996,29.381,7.996,10.415,0,20.141-2.661,29.197-7.996Z" stroke-width="0"/>
    <path d="M606.205,407.461l-38.658,234.112-33.025-5.453,45.445-275.211,51.371,8.483,48.299,241.687,123.432-213.329,51.373,8.483-45.445,275.211-33.025-5.453,38.658-234.112-127.461,219.448-30.824-5.09-50.142-248.776Z" stroke-width="0"/>
    <path d="M917.405,656.287c-10.572-3.166-19.614-9.278-27.132-18.328-7.522-9.043-12.638-20.754-15.362-35.131l-20.634-108.893,32.155-6.093,19.734,104.144c2.539,13.4,8.156,23.059,16.848,28.982,8.695,5.923,19.253,7.709,31.676,5.355,9.986-1.892,18.306-5.93,24.96-12.112,6.647-6.18,11.237-13.923,13.767-23.239,2.524-9.309,2.727-19.568.603-30.776l-16.964-89.526,32.225-5.727,32.544,171.744-32.155,6.093s-4.501-23.752-5.747-30.329l-1.204,3.634c-5.23,12.348-12.455,21.855-21.661,28.521-9.211,6.667-19.175,11.014-29.893,13.045-11.938,2.262-23.193,1.805-33.758-1.363Z" stroke-width="0"/>
    <path d="M728.209,143.754l-90.528,21.216-6.789-28.968,213.643-50.068,6.789,28.968-90.526,21.215,56.857,242.611-32.589,7.637-56.857-242.611Z" stroke-width="0"/>
    <path d="M895.244,925.716l5.554-12.119-76.423-177.424,35.318,1.007,58.938,138.23,66.719-134.646,35.318,1.007-101.429,203.605c-3.693,7.581-8.303,14.954-13.838,22.116-5.542,7.156-12.977,13.454-22.305,18.898-9.336,5.436-20.197,7.98-32.589,7.627-13.383-.382-24.146-3.543-32.284-9.477-8.138-5.942-14.956-12.583-20.455-19.932l22.168-20.575c5.272,6.348,10.038,11.012,14.298,13.988,4.252,2.97,10.1,4.566,17.537,4.778,6.193.177,11.613-.785,16.266-2.884,4.648-2.1,8.901-5.455,12.751-10.055,3.853-4.605,7.751-10.819,11.694-18.642l2.762-5.502Z" stroke-width="0"/>
    <path d="M1062.276,777.05l-22.462,108.531-32.048-6.633,52.084-251.661,32.048,6.633-5.879,28.408c3.227-3.379,5.897-5.865,8.002-7.459,7.818-5.978,16.947-10.035,27.396-12.181,10.444-2.141,21.614-1.983,33.515.48,14.322,2.964,26.653,9.444,36.995,19.43,10.336,9.99,17.595,22.632,21.775,37.929,4.175,15.296,4.431,31.81.764,49.532-3.618,17.481-10.515,32.136-20.681,43.953-10.174,11.823-22.079,20.117-35.724,24.89-13.652,4.771-27.026,5.8-40.137,3.087-9.96-2.061-18.801-5.22-26.524-9.477-7.73-4.259-14.128-9.44-19.189-15.556-5.067-6.11-8.377-12.747-9.933-19.907ZM1072.942,720.009c-2.764,13.356-2.393,25.017,1.115,34.983,3.503,9.97,9.022,17.884,16.546,23.743,7.52,5.865,15.652,9.697,24.393,11.506,9.47,1.96,18.94,1.451,28.422-1.524,9.475-2.976,17.738-8.351,24.797-16.136,7.052-7.781,11.836-17.74,14.349-29.883,2.512-12.138,2.074-23.177-1.309-33.124-3.391-9.941-8.84-18.161-16.355-24.653-7.522-6.495-16.012-10.721-25.482-12.681-8.502-1.76-17.143-1.583-25.934.52-8.792,2.109-16.759,6.661-23.906,13.662-7.146,7.007-12.365,16.62-15.657,28.853l-.98,4.734Z" stroke-width="0"/>
    <path d="M1236.102,895.942c-11.746-10.724-20.192-23.686-25.332-38.897-5.146-15.205-6.069-30.949-2.774-47.234,3.245-16.039,10.203-30.123,20.881-42.257,10.673-12.129,23.582-20.901,38.718-26.317,15.133-5.41,30.475-6.544,46.031-3.397,16.768,3.393,31.085,10.464,42.951,21.212,11.866,10.749,20.16,24.131,24.891,40.136,4.729,16.011,5.274,33.007,1.635,50.988l-.811,4.01-144.717-29.282c-1.672,8.264-.869,16.775,2.422,25.534,3.285,8.763,8.699,16.369,16.25,22.83,7.546,6.46,16.663,10.77,27.359,12.935,7.775,1.573,15.398,1.728,22.866.453,7.467-1.27,14.52-3.637,21.168-7.1,6.642-3.459,12.771-7.786,18.374-12.978l23.658,21.862c-5.753,5.921-12.503,11.451-20.242,16.584-7.746,5.138-17.795,9.176-30.151,12.114-12.358,2.936-26.317,2.832-41.868-.314-15.799-3.197-29.57-10.157-41.309-20.88ZM1353.706,819.182c.983-4.858-.017-10.877-2.986-18.059-2.976-7.177-8.141-13.849-15.49-20.02-7.356-6.166-16.624-10.383-27.799-12.644-10.936-2.213-21.05-1.917-30.343.88-9.296,2.803-16.769,6.918-22.42,12.349-5.655,5.438-8.972,10.583-9.955,15.441l108.993,22.054Z" stroke-width="0"/>
  </g>
</svg>