<?xml version="1.0" encoding="utf-8"?>
<!-- Generator: Adobe Illustrator 28.3.0, SVG Export Plug-In . SVG Version: 6.00 Build 0)  -->
<svg version="1.1" id="a" xmlns="http://www.w3.org/2000/svg" xmlns:xlink="http://www.w3.org/1999/xlink" x="0px" y="0px"
	 viewBox="0 0 1920 1080" style="enable-background:new 0 0 1920 1080;" xml:space="preserve">
<g>
	<g>
		<path d="M400.9,663.3L270.4,453.9v209.4h-29.6V416.7h41.7l125.6,202.2V416.7h29.6v246.5L400.9,663.3L400.9,663.3z"/>
		<path d="M509.2,655.7c-12.3-7.2-22-17-29.3-29.3c-7.2-12.3-10.8-25.7-10.8-40.4c0-14.5,3.6-27.9,10.8-40.4
			c7.2-12.5,17-22.4,29.3-29.6c12.3-7.2,25.7-10.8,40.4-10.8c14.5,0,27.9,3.7,40.3,11c12.4,7.3,22.2,17.2,29.4,29.6
			c7.2,12.4,10.8,25.8,10.8,40.3c0,14.7-3.6,28.2-10.8,40.4c-7.2,12.3-17,22-29.4,29.3c-12.4,7.2-25.8,10.8-40.3,10.8
			C534.9,666.6,521.5,662.9,509.2,655.7L509.2,655.7z M575.4,631.9c8-4.7,14.3-11.1,18.9-19.2c4.6-8.1,6.9-17,6.9-26.6
			s-2.4-18.5-7.1-26.6c-4.7-8.1-11-14.6-18.9-19.4c-7.9-4.8-16.4-7.2-25.6-7.2c-9.4,0-18.1,2.4-26,7.2c-7.9,4.8-14.2,11.3-18.9,19.4
			c-4.7,8.1-7.1,17-7.1,26.6s2.4,18.5,7.1,26.6c4.7,8.1,11,14.5,18.9,19.2c7.9,4.7,16.5,7.1,26,7.1
			C558.8,638.9,567.4,636.6,575.4,631.9z"/>
		<path d="M718.3,416.7h82.5c13.4,0,25.4,3.2,36,9.5c10.6,6.4,19,14.7,25,25c6,10.3,9,21,9,32.2c0,12.3-2.3,23.2-6.9,32.9
			c-4.6,9.6-10.7,17.6-18.2,24c-7.6,6.4-16.1,11.1-25.5,14.1l62.5,108.8h-35.2l-59.2-105.8h-40.4v105.8h-29.6L718.3,416.7
			L718.3,416.7z M820.2,525.2c6.8-3.9,12.2-9.4,16.1-16.3c3.9-6.9,5.9-14.4,5.9-22.5c0-7.9-2-15.1-5.9-21.7
			c-3.9-6.6-9.3-11.8-16.1-15.8c-6.8-3.9-14.1-5.9-22-5.9h-50.3v88.1h50.3C806.1,531.1,813.4,529.2,820.2,525.2L820.2,525.2z"/>
		<path d="M926.8,655.7c-12.1-7.2-21.6-17-28.8-29.3c-7.1-12.3-10.7-25.7-10.7-40.4c0-14.5,3.6-27.9,10.7-40.3
			c7.1-12.4,16.8-22.2,28.9-29.6c12.2-7.3,25.3-11,39.3-11c15.1,0,28.8,3.6,40.9,10.8c12.2,7.2,21.7,17.4,28.6,30.4
			c6.9,13,10.4,27.7,10.4,43.9v3.6H915.6c0,7.5,2.2,14.7,6.6,21.7c4.4,7,10.4,12.7,18.1,16.9c7.7,4.3,16.3,6.4,26,6.4
			c7,0,13.6-1.2,19.9-3.6c6.2-2.4,11.9-5.7,17.1-9.9c5.1-4.2,9.7-9,13.6-14.5l24.3,14.8c-3.9,6.1-8.8,12.1-14.6,17.9
			c-5.8,5.8-13.8,11.1-24,15.8c-10.2,4.7-22.3,7.1-36.3,7.1C952,666.6,938.8,662.9,926.8,655.7L926.8,655.7z M1015.2,568.6
			c0-4.4-1.9-9.4-5.8-15.1c-3.8-5.7-9.5-10.6-16.9-14.6c-7.5-4.1-16.2-6.1-26.3-6.1c-9.9,0-18.6,2-26.1,6.1
			c-7.6,4.1-13.3,8.9-17.3,14.6c-3.9,5.7-5.9,10.7-5.9,15.1H1015.2L1015.2,568.6z"/>
		<path d="M1101.5,637.6v98h-28.9V508.4h28.9v25.6c2.2-3.5,4.1-6.1,5.6-7.9c5.7-6.6,12.9-11.7,21.5-15.4c8.7-3.7,18.4-5.6,29.1-5.6
			c12.9,0,24.8,3.4,35.5,10.2c10.7,6.8,19.3,16.4,25.6,28.9c6.4,12.5,9.5,26.7,9.5,42.7c0,15.8-3.3,29.7-10,41.7
			c-6.7,12.1-15.5,21.4-26.5,27.9c-11,6.6-22.4,9.9-34.2,9.9c-9,0-17.2-1.2-24.7-3.5c-7.5-2.3-13.9-5.6-19.4-10
			C1108.2,648.7,1104.2,643.5,1101.5,637.6L1101.5,637.6z M1100.6,586.3c0,12.1,2.4,22.1,7.2,30.1c4.8,8,11,13.9,18.6,17.6
			c7.6,3.7,15.3,5.6,23.2,5.6c8.5,0,16.7-2.1,24.3-6.4c7.7-4.3,13.9-10.4,18.6-18.4c4.7-8,7.1-17.5,7.1-28.4s-2.4-20.4-7.1-28.4
			c-4.7-8-10.9-14.1-18.6-18.4c-7.7-4.3-15.8-6.4-24.3-6.4c-7.7,0-15.1,1.7-22.4,5.1c-7.2,3.4-13.3,8.8-18.2,16.1
			c-4.9,7.3-7.7,16.6-8.4,27.8L1100.6,586.3L1100.6,586.3z"/>
		<path d="M1255,416.7h28.9v246.5H1255V416.7L1255,416.7z"/>
		<path d="M1334.7,475.6c-5.9,0-11-2.1-15.3-6.2c-4.3-4.2-6.4-9.3-6.4-15.4c0-5.9,2.1-11,6.4-15.3c4.3-4.3,9.4-6.4,15.3-6.4
			s11,2.1,15.3,6.4c4.3,4.3,6.4,9.4,6.4,15.3c0,6.1-2.1,11.3-6.4,15.4C1345.7,473.5,1340.7,475.6,1334.7,475.6z M1320.3,663.3h28.9
			V508.4h-28.9V663.3z"/>
		<path d="M1415.2,655.7c-12.1-7.2-21.6-17-28.8-29.3c-7.1-12.3-10.7-25.7-10.7-40.4c0-14.5,3.6-27.9,10.7-40.3
			c7.1-12.4,16.8-22.2,28.9-29.6c12.2-7.3,25.3-11,39.3-11c12.7,0,23.7,2.1,33,6.2c9.3,4.2,16.8,9,22.4,14.5
			c5.6,5.5,10.7,11.4,15.3,17.8l1,1.3l-25,15.4c-0.4-0.7-0.9-1.3-1.3-2c-5.5-7.7-11.9-13.6-19.4-17.9c-7.5-4.3-16.1-6.4-26-6.4
			c-8.8,0-17,2.4-24.8,7.1c-7.8,4.7-14,11.1-18.6,19.1c-4.6,8-6.9,16.6-6.9,25.8c0,9.4,2.3,18.1,6.9,26.1c4.6,8,10.7,14.3,18.4,18.9
			c7.7,4.6,16,6.9,25,6.9c9.9,0,18.6-2.1,26.1-6.4c7.6-4.3,14.2-10.6,19.9-18.9c0.4-0.7,0.9-1.2,1.3-1.6l24.3,14.8l-0.3,0.7
			c-4.4,6.8-9.2,12.9-14.3,18.4c-5.2,5.5-12.5,10.5-22,15c-9.5,4.5-21.2,6.7-35,6.7C1440.4,666.6,1427.2,662.9,1415.2,655.7
			L1415.2,655.7z"/>
		<path d="M1567.5,660.5c-7.3-4.1-12.9-9.4-16.6-16.1c-3.7-6.7-5.6-13.9-5.6-21.5c0-10.5,4.4-19.9,13.3-28.1
			c8.9-8.2,22.2-14.5,39.9-18.9l52.6-12.8c0-9.6-3.3-17.1-10-22.4c-6.7-5.3-15.6-7.9-26.8-7.9c-10.7,0-19.3,2.4-25.8,7.1
			c-6.5,4.7-10.5,10.8-12,18.2l-27.9-3.9c1.5-8.3,5-16.2,10.4-23.7c5.4-7.4,12.9-13.5,22.5-18.2c9.6-4.7,21.1-7.1,34.5-7.1
			c12.9,0,24.3,2.6,34,7.9c9.7,5.3,17.2,12.4,22.4,21.5c5.1,9.1,7.7,19.2,7.7,30.4v51.6c0,6.4,0.3,12,1,16.9
			c0.7,4.9,1.8,9.8,3.3,14.5c1.5,4.7,3.7,9.8,6.6,15.3h-30.2c-0.2-0.2-0.4-0.4-0.5-0.7c-0.1-0.2-0.2-0.4-0.2-0.7
			c-2-3.1-3.6-7-4.8-11.8c-1.2-4.8-2.2-10.6-3.1-17.4c-2,5.9-6.1,11.5-12.3,16.6c-6.2,5.2-13.5,9.3-21.7,12.5
			c-8.2,3.2-16.2,4.8-23.8,4.8C1583.8,666.6,1574.9,664.5,1567.5,660.5L1567.5,660.5z M1622,636.1c8.1-3.2,15-7.9,20.7-14.3
			c5.7-6.4,8.5-13.8,8.5-22.4v-15.1c-5.9,2.6-12.4,5-19.6,7.2c-7.1,2.2-14.1,4.3-20.9,6.2c-1.8,0.4-3.6,0.9-5.6,1.3
			c-9.4,2.4-16.8,5.7-22,9.9c-5.3,4.2-7.9,8.8-7.9,13.8c0,3.5,0.9,6.6,2.8,9.4c1.9,2.7,4.6,4.9,8.2,6.4c3.6,1.5,8.2,2.3,13.6,2.3
			C1606.5,640.9,1613.8,639.3,1622,636.1L1622,636.1z"/>
	</g>
	<polygon points="133,344.4 133,735.6 1029,735.6 1029,709.3 162.6,709.3 162.6,370.7 1757.4,370.7 1757.4,709.3 1147.5,709.3 
		1147.5,735.6 1787,735.6 1787,344.4 	"/>
</g>
</svg>
