<?xml version="1.0" encoding="UTF-8"?>
<svg id="a" data-name="Layer 1" xmlns="http://www.w3.org/2000/svg" width="1920" height="1080" viewBox="0 0 1920 1080">
  <rect width="1920" height="1080" fill="#fff" stroke-width="0"/>
  <g>
    <g>
      <path d="M400.932,663.268l-130.5-209.39v209.39h-29.583v-246.535h41.747l125.567,202.159v-202.159h29.585v246.535h-36.816Z" stroke-width="0"/>
      <path d="M509.196,655.707c-12.274-7.232-22.023-16.981-29.254-29.256-7.231-12.27-10.848-25.747-10.848-40.431,0-14.464,3.617-27.941,10.848-40.432,7.231-12.492,16.979-22.353,29.254-29.584,12.272-7.232,25.747-10.848,40.433-10.848,14.462,0,27.884,3.672,40.266,11.012,12.378,7.344,22.189,17.205,29.421,29.584,7.231,12.383,10.848,25.804,10.848,40.267,0,14.683-3.617,28.161-10.848,40.431-7.231,12.276-17.043,22.024-29.421,29.256-12.383,7.231-25.804,10.847-40.266,10.847-14.686,0-28.161-3.616-40.433-10.847ZM575.433,631.875c7.997-4.71,14.298-11.119,18.902-19.23,4.601-8.104,6.902-16.981,6.902-26.625s-2.357-18.516-7.067-26.626c-4.717-8.104-11.012-14.57-18.902-19.394-7.889-4.818-16.436-7.231-25.639-7.231-9.426,0-18.079,2.414-25.968,7.231-7.889,4.824-14.192,11.29-18.902,19.394-4.714,8.11-7.067,16.985-7.067,26.626s2.352,18.521,7.067,26.625c4.71,8.11,11.012,14.52,18.902,19.23,7.889,4.715,16.542,7.068,25.968,7.068,9.203,0,17.802-2.352,25.804-7.068Z" stroke-width="0"/>
      <path d="M718.315,416.732h82.507c13.365,0,25.362,3.18,35.994,9.533,10.627,6.358,18.953,14.684,24.981,24.983,6.026,10.303,9.041,21.037,9.041,32.214,0,12.276-2.301,23.231-6.902,32.871-4.604,9.646-10.683,17.643-18.244,23.997-7.56,6.358-16.056,11.068-25.475,14.135l62.453,108.804h-35.171l-59.168-105.845h-40.433v105.845h-29.583v-246.535ZM820.217,525.209c6.789-3.945,12.162-9.369,16.105-16.272,3.946-6.903,5.918-14.407,5.918-22.517,0-7.888-1.972-15.12-5.918-21.695-3.943-6.574-9.316-11.834-16.105-15.778-6.796-3.945-14.136-5.916-22.025-5.916h-50.294v88.095h50.294c7.889,0,15.229-1.973,22.025-5.916Z" stroke-width="0"/>
      <path d="M926.756,655.707c-12.056-7.232-21.644-16.981-28.763-29.256-7.125-12.27-10.683-25.747-10.683-40.431,0-14.464,3.558-27.885,10.683-40.267,7.118-12.379,16.763-22.24,28.927-29.584,12.162-7.34,25.254-11.012,39.279-11.012,15.123,0,28.763,3.616,40.927,10.848,12.162,7.231,21.694,17.369,28.598,30.405,6.902,13.041,10.354,27.669,10.354,43.883v3.617h-130.5c0,7.452,2.188,14.683,6.573,21.695,4.383,7.016,10.406,12.655,18.082,16.929,7.666,4.272,16.321,6.41,25.966,6.41,7.013,0,13.642-1.202,19.889-3.616,6.244-2.409,11.941-5.697,17.092-9.862,5.147-4.16,9.696-8.983,13.642-14.464l24.326,14.793c-3.946,6.137-8.825,12.111-14.629,17.915-5.809,5.809-13.804,11.069-23.997,15.778-10.19,4.71-22.3,7.067-36.323,7.067-14.246,0-27.395-3.616-39.444-10.847ZM1015.18,568.598c0-4.381-1.922-9.419-5.753-15.12-3.838-5.697-9.483-10.571-16.93-14.628-7.452-4.053-16.22-6.081-26.297-6.081-9.861,0-18.57,2.028-26.131,6.081-7.563,4.057-13.313,8.931-17.259,14.628-3.943,5.701-5.915,10.74-5.915,15.12h98.285Z" stroke-width="0"/>
      <path d="M1101.538,637.628v97.956h-28.927v-227.141h28.927v25.641c2.188-3.503,4.052-6.133,5.588-7.889,5.697-6.574,12.871-11.721,21.529-15.449,8.655-3.724,18.352-5.588,29.092-5.588,12.928,0,24.763,3.401,35.503,10.19,10.733,6.795,19.28,16.435,25.639,28.927,6.352,12.491,9.532,26.738,9.532,42.733,0,15.778-3.344,29.697-10.025,41.747-6.688,12.054-15.506,21.366-26.462,27.94-10.961,6.574-22.352,9.861-34.187,9.861-8.987,0-17.205-1.15-24.652-3.451-7.452-2.301-13.92-5.639-19.395-10.025-5.48-4.382-9.532-9.533-12.162-15.449ZM1100.551,586.348c0,12.055,2.409,22.08,7.234,30.077,4.818,8.002,11.01,13.863,18.57,17.587,7.56,3.728,15.285,5.587,23.174,5.587,8.547,0,16.653-2.136,24.326-6.41,7.668-4.272,13.858-10.406,18.573-18.408,4.71-7.996,7.067-17.473,7.067-28.434s-2.357-20.432-7.067-28.434c-4.714-7.996-10.904-14.135-18.573-18.407-7.673-4.274-15.778-6.411-24.326-6.411-7.673,0-15.12,1.7-22.352,5.096-7.231,3.399-13.313,8.767-18.244,16.106-4.93,7.345-7.725,16.6-8.383,27.777v4.272Z" stroke-width="0"/>
      <path d="M1254.954,416.732h28.927v246.535h-28.927v-246.535Z" stroke-width="0"/>
      <path d="M1334.739,475.573c-5.918,0-11.012-2.08-15.287-6.245-4.272-4.161-6.409-9.312-6.409-15.449,0-5.918,2.136-11.012,6.409-15.286,4.275-4.272,9.37-6.41,15.287-6.41s11.01,2.137,15.285,6.41c4.272,4.274,6.409,9.369,6.409,15.286,0,6.137-2.136,11.289-6.409,15.449-4.275,4.166-9.37,6.245-15.285,6.245ZM1320.274,663.268h28.927v-154.824h-28.927v154.824Z" stroke-width="0"/>
      <path d="M1415.18,655.707c-12.056-7.232-21.644-16.981-28.763-29.256-7.125-12.27-10.683-25.747-10.683-40.431,0-14.464,3.558-27.885,10.683-40.267,7.118-12.379,16.763-22.24,28.927-29.584,12.162-7.34,25.254-11.012,39.279-11.012,12.707,0,23.719,2.086,33.037,6.245,9.311,4.166,16.763,8.989,22.352,14.464,5.588,5.48,10.683,11.397,15.285,17.75l.987,1.315-24.984,15.449c-.439-.657-.877-1.315-1.314-1.972-5.48-7.668-11.948-13.642-19.395-17.915-7.452-4.274-16.105-6.41-25.968-6.41-8.766,0-17.04,2.357-24.817,7.067-7.781,4.715-13.971,11.069-18.573,19.066-4.601,8.002-6.902,16.6-6.902,25.804,0,9.424,2.301,18.136,6.902,26.132,4.601,8.003,10.735,14.299,18.408,18.902,7.668,4.601,15.995,6.903,24.981,6.903,9.863,0,18.573-2.137,26.133-6.411,7.56-4.272,14.187-10.569,19.889-18.901.435-.657.872-1.202,1.314-1.644l24.326,14.793-.329.657c-4.385,6.795-9.154,12.934-14.3,18.408-5.151,5.48-12.491,10.467-22.023,14.957-9.532,4.489-21.202,6.738-35.009,6.738-14.246,0-27.395-3.616-39.444-10.847Z" stroke-width="0"/>
      <path d="M1567.549,660.473c-7.344-4.053-12.876-9.419-16.599-16.106-3.73-6.682-5.588-13.857-5.588-21.531,0-10.519,4.437-19.886,13.313-28.105,8.874-8.218,22.187-14.515,39.937-18.902l52.595-12.82c0-9.64-3.344-17.092-10.025-22.352-6.688-5.259-15.614-7.889-26.791-7.889-10.74,0-19.344,2.357-25.804,7.067-6.467,4.715-10.467,10.796-11.997,18.244l-27.942-3.945c1.532-8.325,4.982-16.214,10.354-23.668,5.368-7.447,12.871-13.528,22.518-18.242,9.64-4.711,21.144-7.068,34.513-7.068,12.928,0,24.269,2.63,34.022,7.889,9.748,5.259,17.203,12.44,22.354,21.53,5.147,9.096,7.725,19.23,7.725,30.407v51.608c0,6.358.329,11.998.985,16.929.658,4.93,1.753,9.754,3.288,14.464,1.53,4.714,3.725,9.809,6.573,15.285h-30.241c-.221-.216-.385-.437-.494-.657-.113-.216-.165-.437-.165-.658-1.972-3.066-3.563-7.01-4.766-11.834-1.206-4.818-2.249-10.627-3.123-17.421-1.972,5.916-6.08,11.453-12.326,16.6-6.244,5.151-13.478,9.317-21.694,12.491-8.218,3.174-16.164,4.766-23.832,4.766-10.519,0-19.452-2.028-26.791-6.081ZM1621.951,636.149c8.105-3.174,15.008-7.941,20.709-14.299,5.697-6.353,8.547-13.806,8.547-22.353v-15.12c-5.918,2.63-12.441,5.043-19.56,7.231-7.123,2.194-14.082,4.274-20.873,6.245-1.756.442-3.614.879-5.586,1.315-9.426,2.415-16.765,5.701-22.025,9.862-5.259,4.166-7.889,8.767-7.889,13.806,0,3.509.931,6.631,2.794,9.369,1.859,2.743,4.601,4.879,8.218,6.41,3.614,1.536,8.162,2.301,13.642,2.301,6.573,0,13.912-1.586,22.023-4.766Z" stroke-width="0"/>
    </g>
    <polygon points="133.009 344.416 133.009 735.584 1029.008 735.579 1029.008 709.277 162.592 709.277 162.592 370.713 1757.408 370.713 1757.408 709.277 1147.547 709.277 1147.547 735.579 1786.991 735.584 1786.991 344.416 133.009 344.416" stroke-width="0"/>
  </g>
</svg>