<?xml version="1.0" encoding="UTF-8"?>
<svg id="b" data-name="Layer 2" xmlns="http://www.w3.org/2000/svg" width="1920" height="1080" viewBox="0 0 1920 1080">
  <g id="c" data-name="Layer 1">
    <g>
      <rect width="1920" height="1080" fill="#fff" opacity="0" stroke-width="0"/>
      <path d="M210,300.504v478.991h1500v-478.991H210ZM238.243,751.252v-422.505h1443.513v422.505H238.243ZM504.546,433.617h28.739v212.767h-34.063l-107.863-173.069v173.069h-28.737v-212.767h38.247l.534.861,103.143,166.055v-166.916ZM656.611,518.218c-10.741-6.367-22.546-9.596-35.085-9.596-12.726,0-24.576,3.181-35.222,9.454-10.633,6.264-19.201,14.928-25.467,25.752-6.268,10.828-9.447,22.675-9.447,35.209,0,12.726,3.181,24.575,9.454,35.22,6.262,10.63,14.828,19.196,25.46,25.462h0c10.645,6.272,22.495,9.452,35.222,9.452,12.537,0,24.338-3.179,35.075-9.449,10.732-6.271,19.347-14.838,25.607-25.465,6.273-10.645,9.454-22.494,9.454-35.22,0-12.536-3.179-24.338-9.45-35.075-6.261-10.718-14.874-19.38-25.601-25.744ZM663.481,579.037c0,7.824-1.89,15.12-5.617,21.685-3.727,6.566-8.899,11.828-15.374,15.641-6.466,3.811-13.519,5.743-20.963,5.743-7.627,0-14.724-1.93-21.094-5.738-6.395-3.817-11.573-9.087-15.392-15.663-3.814-6.557-5.747-13.846-5.747-21.669s1.934-15.109,5.747-21.67h0c3.823-6.579,9.007-11.899,15.408-15.812,6.376-3.894,13.468-5.868,21.078-5.868,7.425,0,14.423,1.974,20.799,5.867,6.393,3.909,11.577,9.23,15.408,15.812,3.814,6.567,5.748,13.858,5.748,21.671ZM873.834,541.674c6.582-5.533,11.948-12.586,15.947-20.965,4.003-8.386,6.032-18.031,6.032-28.668,0-9.758-2.664-19.262-7.918-28.246-5.245-8.96-12.589-16.307-21.828-21.835-9.265-5.537-19.852-8.345-31.467-8.345h-71.808v212.767h28.737v-89.783h31.407l50.189,89.783h34.049l-53.445-93.109c7.361-2.668,14.115-6.564,20.103-11.6ZM791.53,459.567h40.84c6.334,0,12.312,1.606,17.768,4.772,5.468,3.177,9.846,7.465,13.014,12.747,3.158,5.261,4.76,11.138,4.76,17.464,0,6.526-1.608,12.647-4.78,18.196-3.167,5.544-7.538,9.961-12.994,13.131-5.457,3.167-11.435,4.772-17.768,4.772h-40.84v-71.083ZM1005.691,518.079c-10.556-6.275-22.549-9.458-35.647-9.458-12.175,0-23.701,3.231-34.26,9.603-10.541,6.364-19.011,15.027-25.175,25.747-6.174,10.729-9.305,22.527-9.305,35.065,0,12.728,3.132,24.573,9.308,35.209,6.162,10.627,14.586,19.196,25.036,25.465,10.46,6.277,22.032,9.46,34.396,9.46,12.105,0,22.729-2.073,31.575-6.161,8.796-4.065,15.821-8.692,20.879-13.75,4.994-4.992,9.251-10.207,12.654-15.5l1.01-1.572-23.671-14.394-.985,1.368c-3.237,4.495-7.018,8.504-11.239,11.915-4.204,3.4-8.917,6.12-14.01,8.084-5.056,1.954-10.511,2.944-16.214,2.944-7.828,0-14.94-1.751-21.139-5.207-6.206-3.455-11.144-8.076-14.679-13.734-3.157-5.047-4.916-10.29-5.243-15.614h110.641v-4.89c0-13.989-3.026-26.799-8.996-38.076-5.991-11.311-14.381-20.229-24.937-26.505ZM930.191,562.436c.459-2.917,1.982-6.26,4.545-9.966,3.165-4.57,7.877-8.554,14.003-11.84,6.118-3.279,13.286-4.943,21.305-4.943,8.2,0,15.412,1.662,21.435,4.937,6.032,3.286,10.648,7.265,13.72,11.824,2.497,3.716,3.98,7.066,4.427,9.988h-79.435ZM1158.775,517.548c-9.37-5.923-19.829-8.926-31.089-8.926-9.312,0-17.857,1.645-25.397,4.89-7.565,3.257-13.93,7.828-18.913,13.579-.487.556-1.001,1.196-1.548,1.928v-17.608h-28.181v196.316h28.181v-78.082c2.012,2.816,4.471,5.391,7.355,7.696,4.794,3.841,10.532,6.809,17.054,8.823,6.462,1.996,13.679,3.008,21.449,3.008,10.324,0,20.396-2.901,29.936-8.623,9.525-5.716,17.297-13.918,23.102-24.38,5.795-10.451,8.733-22.662,8.733-36.294,0-13.793-2.787-26.266-8.284-37.075-5.518-10.84-13.054-19.335-22.398-25.25ZM1161.276,579.314c0,8.921-1.932,16.725-5.742,23.194-3.813,6.472-8.884,11.501-15.071,14.948-6.204,3.455-12.849,5.207-19.748,5.207-6.384,0-12.726-1.532-18.852-4.552-6.069-2.99-11.115-7.775-14.998-14.224-3.898-6.461-5.874-14.729-5.874-24.573v-3.57c.542-9.081,2.83-16.685,6.801-22.6,3.976-5.917,8.934-10.3,14.737-13.028,5.864-2.753,11.983-4.15,18.185-4.15,6.9,0,13.543,1.752,19.747,5.208,6.185,3.446,11.256,8.475,15.071,14.946,3.811,6.474,5.743,14.278,5.743,23.194ZM1203.481,433.617h28.181v212.767h-28.181v-212.767ZM1254.05,511.41h28.181v134.973h-28.181v-134.973ZM1282.395,452.691c3.962,3.964,5.97,8.76,5.97,14.256,0,5.694-2.014,10.542-5.987,14.41-3.959,3.857-8.749,5.814-14.236,5.814s-10.279-1.957-14.239-5.814c-3.973-3.868-5.987-8.717-5.987-14.41,0-5.497,2.008-10.293,5.97-14.255,3.964-3.962,8.76-5.97,14.256-5.97s10.29,2.009,14.253,5.97ZM1329.769,558.057c-3.724,6.477-5.612,13.536-5.612,20.98,0,7.634,1.888,14.786,5.612,21.257,3.726,6.48,8.763,11.654,14.973,15.38,6.189,3.713,13.003,5.597,20.253,5.597,8.006,0,15.163-1.75,21.271-5.203,6.139-3.469,11.61-8.676,16.263-15.475.415-.627.868-1.192,1.33-1.653l1.012-1.012,23.291,14.162-1.129,2.23c-3.765,5.835-7.915,11.176-12.334,15.876-4.509,4.796-10.979,9.2-19.231,13.087-8.297,3.908-18.549,5.889-30.473,5.889-12.363,0-23.936-3.183-34.396-9.459,0,0,0,0,0,0-10.45-6.269-18.874-14.836-25.036-25.465-6.177-10.636-9.308-22.481-9.308-35.209,0-12.538,3.131-24.336,9.305-35.065,6.164-10.72,14.634-19.382,25.175-25.747,10.559-6.373,22.086-9.603,34.26-9.603,10.978,0,20.656,1.836,28.767,5.457,8.058,3.604,14.616,7.854,19.492,12.631,4.795,4.703,9.225,9.846,13.166,15.289l2.015,2.686-24.384,15.079-2.093-3.137c-4.442-6.213-9.783-11.15-15.842-14.627-6.011-3.448-13.117-5.196-21.121-5.196-7.063,0-13.828,1.928-20.107,5.73-6.303,3.821-11.39,9.044-15.119,15.523ZM1556.802,631.032c-1.259-3.866-2.173-7.886-2.715-11.945-.543-4.088-.819-8.838-.819-14.12v-43.776c0-9.749-2.284-18.728-6.789-26.691-4.522-7.979-11.144-14.361-19.682-18.968-8.504-4.585-18.504-6.91-29.724-6.91-11.565,0-21.684,2.079-30.075,6.181-8.415,4.111-15.069,9.51-19.78,16.045-4.693,6.511-7.754,13.513-9.097,20.811l-.344,1.869,27.278,3.851.344-1.677c1.214-5.911,4.31-10.611,9.465-14.369,5.137-3.745,12.141-5.645,20.815-5.645,9.013,0,16.28,2.121,21.598,6.302,4.924,3.876,7.477,9.155,7.779,16.105l-43.198,10.528c-15.293,3.779-26.961,9.319-34.678,16.466-7.881,7.297-11.877,15.768-11.877,25.176,0,6.798,1.673,13.242,4.971,19.15,3.31,5.948,8.287,10.783,14.791,14.371,6.471,3.573,14.413,5.385,23.606,5.385,6.694,0,13.716-1.401,20.872-4.165,7.12-2.75,13.481-6.414,18.903-10.888,3.545-2.92,6.34-6.025,8.359-9.28.548,3.344,1.157,6.361,1.82,9.012,1.018,4.08,2.381,7.518,4.054,10.226.055.26.143.508.262.734.185.375.447.729.78,1.054l.531.519h29.397l-1.385-2.663c-2.367-4.55-4.203-8.818-5.46-12.688ZM1493.057,590.84l.062-.017c5.892-1.71,11.858-3.495,17.734-5.305,5.067-1.557,9.842-3.271,14.234-5.106v10.057c0,6.753-2.283,12.723-6.785,17.744-4.623,5.156-10.301,9.076-16.875,11.65-6.63,2.599-12.691,3.917-18.016,3.917-4.385,0-8.039-.607-10.861-1.807-2.729-1.155-4.806-2.764-6.176-4.784-1.382-2.031-2.054-4.295-2.054-6.922,0-3.721,1.963-7.084,6-10.281,4.24-3.353,10.297-6.056,17.946-8.016,1.745-.386,3.311-.755,4.791-1.128Z" fill="#000" stroke-width="0"/>
    </g>
  </g>
</svg>