<?xml version="1.0" encoding="UTF-8"?>
<svg id="a" data-name="Layer 1" xmlns="http://www.w3.org/2000/svg" width="1920" height="1080" viewBox="0 0 1920 1080">
  <rect width="1920" height="1080" fill="#fff" stroke-width="0"/>
  <g>
    <path d="M838.287,393.896h15.197l22.337,72.339,20.648-72.339h17.275l-28.442,97.404h-17.275l-21.946-71.559-22.078,71.559h-17.403l-28.57-97.404h17.4l20.779,72.339,22.078-72.339Z" stroke-width="0"/>
    <path d="M923.094,458.831h16.668v97.404h-16.668v-97.404Z" stroke-width="0"/>
    <path d="M997.418,538.669h-31.558l-.128-14.903h79.869l.131,14.903h-31.755v82.5h-16.558v-82.5Z" stroke-width="0"/>
    <path d="M1124.562,686.104h-16.656v-42.597h-45.78v42.597h-16.721v-97.404h16.721v40.26h45.78v-40.26h16.656v97.404Z" stroke-width="0"/>
    <path d="M283.767,669.936c-22.344-13.375-40.003-31.491-52.988-54.351-12.991-22.854-19.481-47.923-19.481-75.194,0-27.53,6.489-52.793,19.481-75.779,12.985-22.988,30.645-41.166,52.988-54.547,22.334-13.375,47.14-20.064,74.415-20.064,30.128,0,55.648,6.69,76.559,20.064,20.904,13.381,38.505,32.794,52.791,58.248l-30,18.31c-6.758-12.206-14.481-23.048-23.182-32.531-8.705-9.479-19.418-17.204-32.143-23.182-12.728-5.972-27.406-8.961-44.024-8.961-20.523,0-39.353,5.327-56.496,15.973-17.14,10.654-30.651,25.071-40.52,43.248-9.872,18.184-14.803,37.791-14.803,58.832,0,20.782,4.997,40.196,15,58.247,9.994,18.055,23.505,32.533,40.52,43.442,17.009,10.909,35.776,16.363,56.299,16.363,19.218,0,35.71-3.634,49.481-10.909,13.764-7.268,27.009-17.922,39.741-31.948,2.591-2.855,5.063-5.582,7.4-8.182v-34.675h-105.583v-31.169h140.648v144.935h-23.376l-7.012-46.364c-4.678,7.793-12.078,15.585-22.209,23.378-10.128,7.793-22.081,14.221-35.845,19.285-13.77,5.066-28.185,7.597-43.245,7.597-27.275,0-52.081-6.683-74.415-20.064Z" stroke-width="0"/>
    <path d="M525.756,686.104v-292.209h88.439c26.496,0,50.908,6.563,73.248,19.676,22.334,13.118,40.063,30.845,53.182,53.181,13.113,22.342,19.675,46.754,19.675,73.248s-6.561,50.911-19.675,73.247c-13.12,22.342-30.848,40.069-53.182,53.182-22.341,13.118-46.752,19.675-73.248,19.675h-88.439ZM611.079,654.936c22.854,0,43.054-5.582,60.585-16.754,17.531-11.164,31.036-25.581,40.52-43.246,9.478-17.66,14.221-35.972,14.221-54.935s-4.743-37.27-14.221-54.936c-9.484-17.66-22.988-32.076-40.52-43.246-17.531-11.166-37.732-16.754-60.585-16.754h-50.26v229.871h50.26Z" stroke-width="0"/>
    <path d="M1232.168,669.936c-22.344-13.375-40.003-31.491-52.988-54.351-12.991-22.854-19.481-47.923-19.481-75.194,0-27.53,6.489-52.793,19.481-75.779,12.985-22.988,30.645-41.166,52.988-54.547,22.334-13.375,47.14-20.064,74.415-20.064,30.128,0,55.648,6.69,76.559,20.064,20.904,13.381,38.505,32.794,52.791,58.248l-30,18.31c-6.758-12.206-14.481-23.048-23.182-32.531-8.705-9.479-19.418-17.204-32.143-23.182-12.728-5.972-27.406-8.961-44.024-8.961-20.523,0-39.353,5.327-56.496,15.973-17.14,10.654-30.651,25.071-40.52,43.248-9.872,18.184-14.803,37.791-14.803,58.832,0,20.782,4.997,40.196,15,58.247,9.994,18.055,23.505,32.533,40.52,43.442,17.009,10.909,35.776,16.363,56.299,16.363,19.218,0,35.71-3.634,49.481-10.909,13.764-7.268,27.009-17.922,39.741-31.948,2.591-2.855,5.063-5.582,7.4-8.182v-34.675h-105.583v-31.169h140.648v144.935h-23.376l-7.012-46.364c-4.678,7.793-12.078,15.585-22.209,23.378-10.128,7.793-22.081,14.221-35.845,19.285-13.77,5.066-28.185,7.597-43.245,7.597-27.275,0-52.081-6.683-74.415-20.064Z" stroke-width="0"/>
    <path d="M1474.157,686.104v-292.209h88.439c26.496,0,50.908,6.563,73.248,19.676,22.334,13.118,40.063,30.845,53.182,53.181,13.113,22.342,19.675,46.754,19.675,73.248s-6.561,50.911-19.675,73.247c-13.12,22.342-30.848,40.069-53.182,53.182-22.341,13.118-46.752,19.675-73.248,19.675h-88.439ZM1559.48,654.936c22.854,0,43.054-5.582,60.585-16.754,17.531-11.164,31.036-25.581,40.52-43.246,9.478-17.66,14.221-35.972,14.221-54.935s-4.743-37.27-14.221-54.936c-9.484-17.66-22.988-32.076-40.52-43.246-17.531-11.166-37.732-16.754-60.585-16.754h-50.26v229.871h50.26Z" stroke-width="0"/>
  </g>
</svg>