<?xml version="1.0" encoding="UTF-8"?>
<svg id="a" data-name="Layer 1" xmlns="http://www.w3.org/2000/svg" width="1920" height="1080" viewBox="0 0 1920 1080">
  <rect width="1920" height="1080" fill="#fff" stroke-width="0"/>
  <g>
    <g>
      <path d="M387.85,281.488h133.393c13.73,0,25.834,2.702,36.303,8.105,10.469,5.403,18.573,12.891,24.315,22.458,5.741,9.571,8.611,20.658,8.611,33.264,0,8.78-1.747,16.943-5.235,24.483-3.493,7.546-8.163,13.846-14.014,18.913-5.857,5.065-12.274,8.5-19.249,10.3,8.326,1.804,16.262,5.065,23.808,9.792,7.541,4.728,13.788,11.54,18.743,20.432,4.95,8.896,7.429,19.871,7.429,32.925,0,13.735-3.097,26.12-9.286,37.148-6.195,11.033-14.975,19.702-26.341,26.003-11.371,6.305-24.373,9.456-39.005,9.456h-139.471v-253.278ZM512.631,381.28c3.039-1.689,5.403-4.053,7.092-7.092s2.533-6.47,2.533-10.3c0-3.599-.844-6.865-2.533-9.794-1.689-2.923-4.053-5.287-7.092-7.092-3.04-1.8-6.364-2.702-9.962-2.702h-35.459v39.512h35.459c3.599,0,6.922-.844,9.962-2.533ZM513.982,467.226c3.04-1.8,5.456-4.222,7.261-7.261,1.799-3.039,2.701-6.359,2.701-9.962,0-3.826-.902-7.261-2.701-10.301-1.804-3.039-4.221-5.455-7.261-7.259-3.039-1.8-6.363-2.702-9.962-2.702h-36.81v40.188h36.81c3.599,0,6.922-.898,9.962-2.702Z" stroke-width="0"/>
      <path d="M628.463,532.233c-9.118-3.935-15.988-9.286-20.6-16.041-4.617-6.753-6.923-14.183-6.923-22.288,0-15.534,5.683-28.309,17.054-38.328,11.366-10.015,30.673-17.166,57.917-21.446l40.187-6.415c0-6.528-1.52-12.496-4.559-17.899-3.039-5.403-7.714-8.105-14.015-8.105-5.857,0-10.416,2.481-13.677,7.43-3.267,4.955-5.235,11.26-5.91,18.911l-73.281-12.495c1.572-8.553,6.754-16.937,15.534-25.16,8.78-8.215,20.204-14.91,34.276-20.092,14.068-5.177,29.549-7.768,46.435-7.768,20.483,0,37.706,2.871,51.669,8.613,13.956,5.74,24.315,13.455,31.069,23.133,6.754,9.683,10.131,20.716,10.131,33.094v56.396c0,6.982.338,13.171,1.014,18.574.675,5.403,1.857,10.695,3.546,15.872,1.689,5.182,4.105,10.696,7.261,16.547h-81.725c-.227-.221-2.871-5.456-3.883-8.274-1.014-2.812-1.858-5.572-2.533-8.273-3.156,3.155-7.377,6.247-12.664,9.286-5.292,3.039-11.651,5.572-19.08,7.599-7.429,2.026-15.65,3.039-24.652,3.039-12.611,0-23.47-1.974-32.588-5.91ZM702.926,490.02c3.826-2.137,6.975-5.345,9.456-9.625,2.474-4.274,3.715-9.228,3.715-14.858v-10.806c-2.929,1.804-5.858,3.376-8.78,4.728-2.929,1.35-5.857,2.701-8.78,4.053-.902.226-2.253.791-4.053,1.687-5.857,2.481-10.189,5.014-13.001,7.599-2.818,2.591-4.222,5.572-4.222,8.95,0,2.253.675,4.22,2.026,5.909,1.351,1.689,3.092,3.039,5.235,4.053,2.137,1.014,4.443,1.52,6.922,1.52,3.826,0,7.652-1.065,11.483-3.208Z" stroke-width="0"/>
      <path d="M805.922,365.914h77.672v28.03c1.799-2.702,4.728-6.301,8.78-10.806,6.3-6.755,13.619-11.873,21.951-15.366,8.326-3.489,17.671-5.235,28.029-5.235,11.028,0,19.64,1.747,25.834,5.235,6.189,3.493,18.743,15.028,18.743,15.028l-57.072,68.216c-3.604-5.851-7.545-10.748-11.819-14.689-4.279-3.937-8.78-5.91-13.508-5.91-4.279,0-7.936,1.183-10.975,3.547-3.04,2.364-5.351,5.63-6.923,9.792-1.577,4.17-2.591,8.95-3.039,14.352v76.659h-77.672v-168.852Z" stroke-width="0"/>
      <path d="M1008.541,525.48c-15.086-8.444-26.288-19.361-33.602-32.758-7.319-13.392-10.975-27.524-10.975-42.382,0-14.631,3.656-28.705,10.975-42.213,7.314-13.508,18.516-24.483,33.602-32.925,15.08-8.444,33.433-12.665,55.046-12.665,18.009,0,33.316,2.871,45.927,8.613,12.606,5.74,22.399,12.325,29.38,19.755,6.976,7.43,17.561,23.977,17.561,23.977l-70.918,26.678c0-.675-4.11-12.268-7.598-16.547-3.492-4.274-8.274-6.416-14.352-6.416-4.507,0-8.443,1.408-11.82,4.222-3.377,2.818-5.91,6.701-7.598,11.65-1.688,4.955-2.532,10.358-2.532,16.21s.844,11.202,2.532,16.041c1.689,4.844,4.222,8.669,7.598,11.481,3.377,2.818,7.314,4.222,11.82,4.222,5.851,0,10.3-1.689,13.339-5.066,3.039-3.377,8.611-15.307,8.611-15.534l70.918,25.328s-11.313,17.113-18.405,24.314c-7.092,7.209-16.832,13.456-29.211,18.743-12.384,5.287-27.47,7.936-45.252,7.936-21.613,0-39.966-4.222-55.046-12.664Z" stroke-width="0"/>
      <path d="M1200.187,526.492c-15.086-7.767-26.679-18.288-34.784-31.575-8.104-13.281-12.157-28.03-12.157-44.239s4.053-31.069,12.157-44.577c8.105-13.508,19.698-24.146,34.784-31.913,15.08-7.767,32.641-11.652,52.682-11.652s37.596,3.943,52.681,11.821c15.08,7.883,26.679,18.521,34.784,31.913,8.104,13.397,12.157,28.197,12.157,44.408s-4.053,30.958-12.157,44.239c-8.105,13.287-19.703,23.808-34.784,31.575-15.086,7.768-32.646,11.652-52.681,11.652s-37.602-3.883-52.682-11.652ZM1264.688,478.201c3.377-2.812,5.91-6.638,7.598-11.481,1.689-4.839,2.532-10.184,2.532-16.041s-.844-11.256-2.532-16.21c-1.689-4.949-4.222-8.832-7.598-11.65-3.377-2.814-7.319-4.222-11.819-4.222s-8.443,1.408-11.82,4.222c-3.377,2.818-5.91,6.701-7.598,11.65-1.688,4.955-2.532,10.358-2.532,16.21s.844,11.202,2.532,16.041c1.689,4.844,4.222,8.669,7.598,11.481,3.377,2.818,7.314,4.222,11.82,4.222s8.442-1.404,11.819-4.222Z" stroke-width="0"/>
    </g>
    <g>
      <path d="M387.85,545.234h81.049v182.36h119.886v70.918h-200.935v-253.278Z" stroke-width="0"/>
      <path d="M637.75,790.238c-15.087-7.767-26.679-18.288-34.785-31.575-8.105-13.281-12.156-28.03-12.156-44.239s4.051-31.069,12.156-44.577c8.105-13.508,19.698-24.146,34.785-31.913,15.08-7.767,32.64-11.652,52.681-11.652s37.597,3.943,52.682,11.821c15.081,7.883,26.679,18.521,34.783,31.913,8.105,13.397,12.158,28.197,12.158,44.408s-4.053,30.958-12.158,44.239c-8.104,13.287-19.702,23.808-34.783,31.575-15.086,7.768-32.646,11.652-52.682,11.652s-37.601-3.883-52.681-11.652ZM702.25,741.947c3.377-2.812,5.91-6.638,7.599-11.481,1.689-4.839,2.533-10.184,2.533-16.041s-.844-11.256-2.533-16.21c-1.689-4.949-4.222-8.832-7.599-11.65-3.376-2.814-7.319-4.222-11.819-4.222s-8.442,1.408-11.819,4.222c-3.377,2.818-5.909,6.701-7.598,11.65-1.689,4.955-2.533,10.358-2.533,16.21s.844,11.202,2.533,16.041c1.689,4.844,4.22,8.669,7.598,11.481,3.377,2.818,7.314,4.222,11.819,4.222s8.444-1.404,11.819-4.222Z" stroke-width="0"/>
      <path d="M821.287,792.265c-8.78-6.416-15.313-15.477-19.586-27.185-4.28-11.704-6.416-25.549-6.416-41.538v-93.882h77.671v72.945c0,9.456,1.52,17.053,4.56,22.794,3.039,5.741,7.936,8.611,14.689,8.611,4.501,0,8.326-1.35,11.483-4.053,3.15-2.701,5.514-6.416,7.092-11.144,1.571-4.728,2.364-10.131,2.364-16.209v-72.945h77.671v168.852h-77.671v-28.03l-2.027,2.364c-7.429,9.456-15.703,16.664-24.82,21.613-9.119,4.949-19.757,7.43-31.913,7.43-13.287,0-24.316-3.208-33.096-9.625Z" stroke-width="0"/>
      <path d="M1034.376,791.251c-11.597-7.092-20.885-17.276-27.861-30.561-6.98-13.283-10.468-28.928-10.468-46.941,0-17.783,3.545-33.317,10.637-46.604,7.092-13.281,16.489-23.412,28.199-30.394,11.704-6.976,24.198-10.469,37.485-10.469,8.553,0,16.489.904,23.808,2.702,7.313,1.804,14.068,4.449,20.261,7.936,6.189,3.493,12.21,7.936,18.067,13.339v-105.026h77.673v253.278h-77.673v-24.652c-2.253,2.702-4.728,5.182-7.429,7.43-7.43,6.305-15.762,11.312-24.991,15.028-9.234,3.714-19.138,5.572-29.717,5.572-13.735,0-26.399-3.547-37.993-10.638ZM1124.544,741.778c3.262-2.701,5.793-6.299,7.598-10.806,1.8-4.501,2.814-9.567,3.041-15.197v-2.026c0-5.853-.844-11.198-2.533-16.041-1.689-4.839-4.222-8.665-7.599-11.483-3.376-2.812-7.319-4.222-11.819-4.222s-8.442,1.41-11.819,4.222c-3.377,2.818-5.91,6.644-7.598,11.483-1.689,4.844-2.533,10.189-2.533,16.041s.844,11.26,2.533,16.209c1.687,4.955,4.22,8.838,7.598,11.652,3.377,2.816,7.314,4.22,11.819,4.22,4.274,0,8.047-1.35,11.313-4.053Z" stroke-width="0"/>
      <path d="M1222.646,545.234h77.671v253.278h-77.671v-253.278Z" stroke-width="0"/>
      <path d="M1380.521,798.512l-78.685-168.852h76.659l39.511,95.234,39.511-95.234h74.632l-85.777,186.075c-5.63,12.606-12.325,23.075-20.092,31.407-7.768,8.326-17.224,14.689-28.368,19.08-11.144,4.389-24.372,6.586-39.68,6.586-18.015,0-32.646-2.649-43.902-7.936-11.26-5.293-20.937-12.327-29.042-21.107l48.966-48.291s7.261,12.943,10.975,17.222c3.716,4.274,8.047,6.416,13.002,6.416,2.475,0,4.95-.675,7.43-2.026,2.474-1.352,4.897-3.325,7.261-5.91,2.364-2.591,4.443-5.799,6.247-9.625l1.35-3.039Z" stroke-width="0"/>
    </g>
  </g>
</svg>