<?xml version="1.0" encoding="UTF-8"?>
<svg id="a" data-name="b" xmlns="http://www.w3.org/2000/svg" width="360" height="207" viewBox="0 0 360 207">
  <rect x="125" y="27" width="47.5" height="27" stroke-width="0"/>
  <rect x="250" y="69" width="47.5" height="27" stroke-width="0"/>
  <rect x="187.5" y="27" width="47.5" height="27" stroke-width="0"/>
  <rect x="62.5" y="27" width="47.5" height="27" stroke-width="0"/>
  <rect x="62.5" y="69" width="47.5" height="27" stroke-width="0"/>
  <rect x="125" y="111" width="47.5" height="27" stroke-width="0"/>
  <rect y="69" width="47.5" height="27" stroke-width="0"/>
  <rect x="312.5" y="27" width="47.5" height="27" stroke-width="0"/>
  <rect x="125" y="69" width="47.5" height="27" stroke-width="0"/>
  <rect x="187.5" y="69" width="47.5" height="27" stroke-width="0"/>
  <rect x="187.5" y="111" width="47.5" height="27" stroke-width="0"/>
  <rect x="250" y="27" width="47.5" height="27" stroke-width="0"/>
  <rect x="312.5" y="69" width="47.5" height="27" stroke-width="0"/>
  <rect x="312.5" y="111" width="47.5" height="27" stroke-width="0"/>
  <rect y="111" width="47.5" height="27" stroke-width="0"/>
  <rect x="312.5" y="153" width="47.5" height="27" stroke-width="0"/>
  <rect y="153" width="47.5" height="27" stroke-width="0"/>
  <rect x="250" y="111" width="47.5" height="27" stroke-width="0"/>
  <rect y="27" width="47.5" height="27" stroke-width="0"/>
  <rect x="62.5" y="111" width="47.5" height="27" stroke-width="0"/>
  <rect x="62.5" y="153" width="47.5" height="27" stroke-width="0"/>
  <rect x="250" y="153" width="47.5" height="27" stroke-width="0"/>
  <rect x="125" y="153" width="47.5" height="27" stroke-width="0"/>
  <rect x="187.5" y="153" width="47.5" height="27" stroke-width="0"/>
</svg>